<svg width="200" height="32" viewBox="0 0 200 32" fill="none" xmlns="http://www.w3.org/2000/svg">
    <!-- Eye icon -->
    <path d="M4.81348 24.9908C4.81348 25.7496 6.02975 26.4773 8.19474 27.0138C10.3597 27.5504 13.2961 27.8518 16.3578 27.8518C19.4196 27.8518 22.3559 27.5504 24.5209 27.0138C26.6859 26.4773 27.9022 25.7496 27.9022 24.9908C27.9022 24.2321 26.6859 23.5044 24.5209 22.9678C22.3559 22.4313 19.4196 22.1299 16.3578 22.1299C13.2961 22.1299 10.3597 22.4313 8.19474 22.9678C6.02975 23.5044 4.81348 24.2321 4.81348 24.9908Z" fill="#B8CBCD"/>
    <path d="M29.8862 16.7109C29.8862 16.7109 23.8763 25.0029 16.4627 25.0029C9.0491 25.0029 3.03922 16.7109 3.03922 16.7109C3.03922 16.7109 9.0491 8.41891 16.4627 8.41891C23.8763 8.41891 29.8862 16.7109 29.8862 16.7109Z" fill="#B9E3ED"/>
    <path d="M16.4627 25.7295C8.76695 25.7295 2.70524 17.4881 2.45094 17.1372C2.36107 17.0132 2.31268 16.864 2.31268 16.7108C2.31268 16.5577 2.36107 16.4085 2.45094 16.2845C2.70524 15.9338 8.76695 7.69212 16.4627 7.69212C24.1585 7.69212 30.2202 15.9335 30.4745 16.2845C30.5643 16.4085 30.6127 16.5577 30.6127 16.7108C30.6127 16.864 30.5643 17.0132 30.4745 17.1372C30.2202 17.4881 24.1585 25.7295 16.4627 25.7295ZM3.95856 16.7109C5.28938 18.368 10.4572 24.2764 16.4627 24.2764C22.4682 24.2764 27.636 18.368 28.9668 16.7109C27.636 15.0539 22.4682 9.14549 16.4627 9.14549C10.4572 9.14549 5.28938 15.0539 3.95856 16.7109Z" fill="#324654"/>
    <path d="M10.6015 16.8635C10.6015 18.3671 11.1988 19.809 12.262 20.8722C13.3251 21.9354 14.7671 22.5326 16.2707 22.5326C17.7742 22.5326 19.2162 21.9354 20.2793 20.8722C21.3425 19.809 21.9398 18.3671 21.9398 16.8635C21.9398 15.36 21.3425 13.918 20.2793 12.8548C19.2162 11.7917 17.7742 11.1944 16.2707 11.1944C14.7671 11.1944 13.3251 11.7917 12.262 12.8548C11.1988 13.918 10.6015 15.36 10.6015 16.8635Z" fill="white"/>
    <path d="M16.2704 23.0173C12.8774 23.0173 10.1169 20.2568 10.1169 16.8635C10.1169 13.4705 12.8774 10.71 16.2704 10.71C19.6635 10.71 22.4242 13.4705 22.4242 16.8635C22.4242 20.2568 19.6637 23.0173 16.2704 23.0173ZM16.2704 11.6788C13.4114 11.6788 11.0857 14.0047 11.0857 16.8635C11.0857 19.7223 13.4116 22.0485 16.2704 22.0485C19.1294 22.0485 21.4554 19.7225 21.4554 16.8635C21.4554 14.0045 19.1294 11.6788 16.2704 11.6788Z" fill="#324654"/>
    <path d="M11.7398 18.9507H10.7711V18.4663C10.7711 17.4017 10.9115 15.3985 11.8515 13.9408C12.942 12.2496 14.9335 11.1569 16.9248 11.1569H17.4092V12.1256H16.9248C15.2542 12.1256 13.5824 13.0442 12.6657 14.4659C11.8602 15.7148 11.74 17.5085 11.74 18.4663L11.7398 18.9507Z" fill="#324654"/>
    <path d="M13.2871 16.8364C13.2871 17.5944 13.5883 18.3213 14.1242 18.8573C14.6602 19.3933 15.3872 19.6944 16.1452 19.6944C16.9032 19.6944 17.6302 19.3933 18.1661 18.8573C18.7021 18.3213 19.0032 17.5944 19.0032 16.8364C19.0032 16.0784 18.7021 15.3514 18.1661 14.8154C17.6302 14.2794 16.9032 13.9783 16.1452 13.9783C15.3872 13.9783 14.6602 14.2794 14.1242 14.8154C13.5883 15.3514 13.2871 16.0784 13.2871 16.8364Z" fill="#324654"/>
    <path d="M16.1452 20.1786C14.3021 20.1786 12.8028 18.6792 12.8028 16.8361C12.8028 14.9931 14.3021 13.4937 16.1452 13.4937C17.9882 13.4937 19.4876 14.9931 19.4876 16.8361C19.4876 18.6792 17.9882 20.1786 16.1452 20.1786ZM16.1452 14.4627C14.8364 14.4627 13.7715 15.5274 13.7715 16.8364C13.7715 18.1452 14.8362 19.2101 16.1452 19.2101C17.454 19.2101 18.5189 18.1454 18.5189 16.8364C18.5189 15.5274 17.454 14.4627 16.1452 14.4627Z" fill="#B9E3ED"/>
    <path d="M16.3789 8.71875C16.1862 8.71875 16.0014 8.6422 15.8651 8.50594C15.7289 8.36969 15.6523 8.18488 15.6523 7.99219V3.39063C15.6523 3.19793 15.7289 3.01312 15.8651 2.87687C16.0014 2.74061 16.1862 2.66406 16.3789 2.66406C16.5716 2.66406 16.7564 2.74061 16.8927 2.87687C17.0289 3.01312 17.1055 3.19793 17.1055 3.39063V7.99219C17.1055 8.18488 17.0289 8.36969 16.8927 8.50594C16.7564 8.6422 16.5716 8.71875 16.3789 8.71875ZM26.2069 12.215C26.0631 12.2152 25.9225 12.1727 25.8029 12.0929C25.6833 12.0131 25.5901 11.8996 25.535 11.7667C25.48 11.6339 25.4657 11.4877 25.4938 11.3467C25.522 11.2057 25.5914 11.0762 25.6932 10.9747L28.947 7.7207C29.0833 7.58443 29.2681 7.50787 29.4608 7.50787C29.6535 7.50787 29.8383 7.58443 29.9746 7.7207C30.1109 7.85696 30.1874 8.04178 30.1874 8.2345C30.1874 8.42721 30.1109 8.61203 29.9746 8.7483L26.7208 12.0021C26.6534 12.0696 26.5732 12.1232 26.4851 12.1598C26.3969 12.1963 26.3023 12.215 26.2069 12.215ZM6.93698 12.215C6.84152 12.2151 6.74698 12.1963 6.65878 12.1598C6.57059 12.1233 6.49048 12.0697 6.42306 12.0021L3.16951 8.74805C3.03325 8.61175 2.9567 8.4269 2.95673 8.23417C2.95675 8.04143 3.03333 7.8566 3.16963 7.72033C3.30594 7.58406 3.49079 7.50752 3.68352 7.50754C3.87626 7.50757 4.06109 7.58415 4.19736 7.72045L7.45115 10.9745C7.55284 11.0761 7.6221 11.2056 7.65015 11.3466C7.6782 11.4876 7.66379 11.6338 7.60875 11.7666C7.5537 11.8994 7.46048 12.0129 7.3409 12.0927C7.22132 12.1725 7.08075 12.2151 6.93698 12.215Z" fill="#324654"/>
    <!-- EyeEase text -->
    <text x="41" y="22" font-family="Arial, sans-serif" font-size="18" font-weight="bold" fill="currentColor">EyeEase</text>
</svg>
